<?xml version="1.0"?>
<svg xmlns="http://www.w3.org/2000/svg" xmlns:xlink="http://www.w3.org/1999/xlink" version="1.1" id="Capa_1" x="0px" y="0px" viewBox="0 0 512 512" style="enable-background:new 0 0 512 512;" xml:space="preserve" width="512px" height="512px"><g><g>
	<g>
		<path d="M488.468,80.162H23.532C10.557,80.162,0,90.719,0,103.693v304.613c0,12.976,10.557,23.532,23.532,23.532h464.936    c12.976,0,23.532-10.557,23.532-23.532V103.693C512,90.719,501.443,80.162,488.468,80.162z M15,103.693    c0-4.704,3.828-8.532,8.532-8.532h32.581v41.113H15V103.693z M15,151.274h41.113v41.113H15V151.274z M15,207.387h41.113V248.5H15    V207.387z M15,263.5h41.113v41.113H15V263.5z M56.113,416.839H23.532c-4.704,0-8.532-3.828-8.532-8.532v-32.581h41.113V416.839z     M497,408.307c0,4.704-3.828,8.532-8.532,8.532h-32.581v-41.113H497V408.307z M497,360.727h-41.113v-41.113H497V360.727z     M497,304.613h-41.113V263.5H497V304.613z M497,248.5h-41.113v-41.113H497V248.5z M497,192.387h-41.113v-8.529    c0-4.142-3.358-7.5-7.5-7.5c-4.142,0-7.5,3.358-7.5,7.5v232.981H71.113v-56.63c0-4.142-3.358-7.5-7.5-7.5    c-4.142,0-7.5,3.358-7.5,7.5v0.516H15v-41.113h41.113v8.529c0,4.142,3.358,7.5,7.5,7.5c4.142,0,7.5-3.358,7.5-7.5V95.162h369.774    v56.629c0,4.142,3.358,7.5,7.5,7.5c4.142,0,7.5-3.358,7.5-7.5v-0.516H497V192.387z M497,136.274h-41.113V95.162h32.581    c4.704,0,8.532,3.828,8.532,8.532V136.274z" data-original="#000000" class="active-path" data-old_color="#ededed" fill="#ededed"/>
	</g>
</g><g>
	<g>
		<path d="M328.145,192.387c-21.816,0-39.564,17.749-39.564,39.564v48.097c0,21.816,17.749,39.564,39.564,39.564    s39.564-17.749,39.564-39.564v-48.097C367.709,210.136,349.961,192.387,328.145,192.387z M352.709,280.048    c0,13.545-11.02,24.564-24.564,24.564s-24.564-11.02-24.564-24.564v-48.097c0-13.545,11.02-24.564,24.564-24.564    s24.564,11.02,24.564,24.564V280.048z" data-original="#000000" class="active-path" data-old_color="#ededed" fill="#ededed"/>
	</g>
</g><g>
	<g>
		<path d="M173.373,246.915c6.127-5.759,9.965-13.927,9.965-22.979c0-17.396-14.152-31.548-31.548-31.548    c-7.775,0-15.246,2.854-21.035,8.036c-3.086,2.763-3.349,7.504-0.586,10.59c2.762,3.086,7.504,3.348,10.59,0.586    c3.035-2.716,6.953-4.212,11.031-4.212c9.125,0,16.548,7.423,16.548,16.548s-7.423,16.548-16.548,16.548    c-4.142,0-7.5,3.358-7.5,7.5c0,4.142,3.358,7.5,7.5,7.5c13.545,0,24.564,11.02,24.564,24.564s-11.02,24.564-24.564,24.564    c-8.739,0-16.892-4.705-21.278-12.278c-2.076-3.584-6.666-4.807-10.249-2.732c-3.584,2.076-4.808,6.664-2.732,10.249    c7.059,12.189,20.186,19.762,34.258,19.762c21.816,0,39.564-17.749,39.564-39.564    C191.355,266.191,184.189,253.984,173.373,246.915z" data-original="#000000" class="active-path" data-old_color="#ededed" fill="#ededed"/>
	</g>
</g><g>
	<g>
		<path d="M239.968,232.469c-9.276,0-17.811,3.217-24.564,8.584v-9.1c0-13.545,11.02-24.564,24.564-24.564    c6.001,0,11.779,2.187,16.268,6.158c3.104,2.745,7.842,2.455,10.587-0.648c2.744-3.103,2.454-7.842-0.648-10.587    c-7.234-6.399-16.541-9.923-26.207-9.923c-21.816,0-39.564,17.749-39.564,39.564v40.081v8.016    c0,21.816,17.749,39.564,39.564,39.564s39.564-17.749,39.564-39.564v-8.016C279.532,250.216,261.784,232.469,239.968,232.469z     M264.532,280.048c0,13.545-11.02,24.564-24.564,24.564s-24.564-11.02-24.564-24.564v-8.016c0-13.545,11.02-24.564,24.564-24.564    s24.564,11.02,24.564,24.564V280.048z" data-original="#000000" class="active-path" data-old_color="#ededed" fill="#ededed"/>
	</g>
</g><g>
	<g>
		<path d="M384.258,152.307c-12.976,0-23.533,10.557-23.533,23.532s10.557,23.532,23.533,23.532    c12.976,0,23.532-10.557,23.532-23.532S397.234,152.307,384.258,152.307z M384.258,184.371c-4.705,0-8.533-3.828-8.533-8.532    s3.828-8.532,8.533-8.532c4.705,0,8.532,3.828,8.532,8.532S388.963,184.371,384.258,184.371z" data-original="#000000" class="active-path" data-old_color="#ededed" fill="#ededed"/>
	</g>
</g></g> </svg>
