<?xml version="1.0"?>
<svg xmlns="http://www.w3.org/2000/svg" xmlns:xlink="http://www.w3.org/1999/xlink" version="1.1" id="Layer_1" x="0px" y="0px" viewBox="0 0 505 505" style="enable-background:new 0 0 505 505;" xml:space="preserve" width="512px" height="512px" class=""><g><g>
	<path d="M450.552,266.199c1.354,1.457,3.232,2.316,5.22,2.389c2.003,0.074,3.924-0.647,5.38-2.001l39.94-37.122   c3.034-2.82,3.208-7.565,0.389-10.6L300.292,2.394c-1.354-1.457-3.232-2.317-5.22-2.389c-2.003-0.068-3.924,0.647-5.38,2.001   l-39.942,37.121c-3.034,2.82-3.208,7.565-0.388,10.599l19.778,21.281l-70.472,75.825c-2.82,3.034-2.646,7.78,0.388,10.6   c3.034,2.819,7.779,2.646,10.6-0.388l69.724-75.02l26.982,29.031L176.768,250.494l-28.954-26.91l39.761-42.781   c2.82-3.034,2.646-7.78-0.388-10.6c-3.035-2.82-7.78-2.646-10.6,0.388l-44.867,48.275c-2.82,3.034-2.646,7.78,0.388,10.6   l39.941,37.122c1.39,1.292,3.215,2.006,5.105,2.006c0.091,0,0.183-0.001,0.275-0.005c1.988-0.073,3.865-0.932,5.219-2.389   l6.862-7.383v28.845H35.783c-3.109,0-5.896,1.918-7.006,4.822l-26.77,70.035c-0.881,2.306-0.572,4.897,0.828,6.93   c1.399,2.033,3.709,3.248,6.178,3.248h16.955v124.802c0,4.142,3.358,7.5,7.5,7.5L474.235,505c4.143,0,7.5-3.358,7.5-7.5v-42.64   c0-4.142-3.357-7.5-7.5-7.5s-7.5,3.358-7.5,7.5V490H310.612c2.441-8.077,7.549-20.825,17.752-33.422   c22.368-27.613,57.563-41.613,104.605-41.613h5.359c10.857,0,20.787-4.016,28.406-10.628v20.521c0,4.142,3.357,7.5,7.5,7.5   s7.5-3.358,7.5-7.5v-53.299c0-22.121-16.638-40.418-38.055-43.064v-69.688L450.552,266.199z M265.456,45.009l28.954-26.91   l190.977,205.485l-28.953,26.91L265.456,45.009z M40.945,302.661h148.566v55.035H33.468H19.909L40.945,302.661z M40.968,372.696   h148.543v117.302H40.968V372.696z M316.171,447.805c-13.295,16.669-18.913,33.319-21.139,42.194H261.5v-117.56h66.26v62.911   C323.694,439.115,319.809,443.243,316.171,447.805z M443.681,399.452v-20.394h22.042   C462.886,389.408,454.332,397.412,443.681,399.452z M465.723,364.058h-22.042v-20.394   C454.332,345.704,462.886,353.709,465.723,364.058z M428.681,400.009c-26.193,0.487-58.571,5.61-85.921,23.59v-58.66   c0-4.142-3.357-7.5-7.5-7.5H254c-4.142,0-7.5,3.358-7.5,7.5v125.06h-41.989V242.677l112.089-120.604l112.08,120.594V400.009z" data-original="#000000" class="active-path" data-old_color="#ededed" fill="#ededed"/>
	<path d="M158.768,390.232H70.077c-4.142,0-7.5,3.358-7.5,7.5v35.186c0,4.142,3.358,7.5,7.5,7.5h88.691c4.142,0,7.5-3.358,7.5-7.5   v-35.186C166.268,393.59,162.91,390.232,158.768,390.232z M151.268,425.418H77.577v-20.186h73.691V425.418z" data-original="#000000" class="active-path" data-old_color="#ededed" fill="#ededed"/>
	<path d="M254.003,204.971c-4.142,0-7.5,3.358-7.5,7.5v86.009c0,4.142,3.358,7.5,7.5,7.5h125.194c4.143,0,7.5-3.358,7.5-7.5v-86.009   c0-4.142-3.357-7.5-7.5-7.5H254.003z M261.503,219.971h47.598v71.009h-47.598V219.971z M371.697,290.98h-47.597v-71.009h47.597   V290.98z" data-original="#000000" class="active-path" data-old_color="#ededed" fill="#ededed"/>
	<path d="M286.266,422.599h-11.729c-4.143,0-7.5,3.358-7.5,7.5s3.357,7.5,7.5,7.5h11.729c4.143,0,7.5-3.358,7.5-7.5   S290.408,422.599,286.266,422.599z" data-original="#000000" class="active-path" data-old_color="#ededed" fill="#ededed"/>
</g></g> </svg>
