<svg width="381" height="80" viewBox="0 0 381 80" fill="none" xmlns="http://www.w3.org/2000/svg">
<path d="M52.368 29.6H56.752V52H52.368V29.6ZM66.613 40.32L64.853 36.8H64.693L65.205 40.32V52H61.045V29.44H64.245L72.725 41.376L74.421 44.8H74.581L74.069 41.376V29.6H78.229V52.16H75.029L66.613 40.32ZM91.7403 45.984C91.7403 45.3013 91.4843 44.7467 90.9723 44.32C90.4816 43.8933 89.8523 43.5093 89.0843 43.168C88.3376 42.8053 87.5163 42.4427 86.6203 42.08C85.7456 41.696 84.9243 41.2373 84.1562 40.704C83.4096 40.1493 82.7803 39.4667 82.2682 38.656C81.7776 37.8453 81.5323 36.8107 81.5323 35.552C81.5323 34.464 81.7136 33.5253 82.0763 32.736C82.4389 31.9253 82.9509 31.2533 83.6123 30.72C84.2949 30.1867 85.0949 29.792 86.0123 29.536C86.9296 29.28 87.9536 29.152 89.0843 29.152C90.3856 29.152 91.6123 29.2693 92.7643 29.504C93.9163 29.7173 94.8656 30.0373 95.6123 30.464L94.2363 34.144C93.7669 33.8453 93.0629 33.5787 92.1243 33.344C91.1856 33.088 90.1723 32.96 89.0843 32.96C88.0603 32.96 87.2709 33.1627 86.7163 33.568C86.1829 33.9733 85.9163 34.5173 85.9163 35.2C85.9163 35.84 86.1616 36.3733 86.6523 36.8C87.1643 37.2267 87.7936 37.6213 88.5403 37.984C89.3083 38.3467 90.1296 38.72 91.0043 39.104C91.9003 39.488 92.7216 39.9573 93.4683 40.512C94.2363 41.0453 94.8656 41.7173 95.3563 42.528C95.8683 43.3173 96.1243 44.3093 96.1243 45.504C96.1243 46.6987 95.9216 47.7333 95.5163 48.608C95.1323 49.4613 94.5776 50.176 93.8523 50.752C93.1483 51.328 92.2843 51.7547 91.2603 52.032C90.2576 52.3093 89.1483 52.448 87.9323 52.448C86.3323 52.448 84.9243 52.2987 83.7083 52C82.4923 51.7013 81.5963 51.4027 81.0203 51.104L82.4283 47.36C82.6629 47.488 82.9616 47.6267 83.3243 47.776C83.7083 47.9253 84.1349 48.064 84.6043 48.192C85.0736 48.32 85.5643 48.4267 86.0763 48.512C86.6096 48.5973 87.1536 48.64 87.7083 48.64C89.0096 48.64 90.0016 48.4267 90.6843 48C91.3883 47.552 91.7403 46.88 91.7403 45.984ZM99.493 29.6H103.877V52H99.493V29.6ZM108.17 29.6C108.618 29.536 109.119 29.4827 109.674 29.44C110.25 29.3973 110.837 29.3653 111.434 29.344C112.031 29.3227 112.607 29.312 113.162 29.312C113.738 29.2907 114.25 29.28 114.698 29.28C116.682 29.28 118.378 29.5573 119.786 30.112C121.194 30.6667 122.335 31.4453 123.21 32.448C124.085 33.4507 124.725 34.6453 125.13 36.032C125.535 37.4187 125.738 38.944 125.738 40.608C125.738 42.1227 125.546 43.584 125.162 44.992C124.778 46.4 124.138 47.648 123.242 48.736C122.346 49.824 121.162 50.6987 119.69 51.36C118.239 52.0213 116.437 52.352 114.282 52.352C113.941 52.352 113.482 52.3413 112.906 52.32C112.351 52.2987 111.765 52.2667 111.146 52.224C110.549 52.2027 109.973 52.1707 109.418 52.128C108.863 52.1067 108.447 52.0747 108.17 52.032V29.6ZM115.05 33.184C114.581 33.184 114.101 33.1947 113.61 33.216C113.141 33.2373 112.789 33.2693 112.554 33.312V48.32C112.639 48.3413 112.778 48.3627 112.97 48.384C113.183 48.384 113.407 48.3947 113.642 48.416C113.877 48.416 114.101 48.4267 114.314 48.448C114.527 48.448 114.687 48.448 114.794 48.448C116.031 48.448 117.055 48.2347 117.866 47.808C118.698 47.36 119.349 46.7733 119.818 46.048C120.309 45.3227 120.65 44.4907 120.842 43.552C121.034 42.592 121.13 41.6107 121.13 40.608C121.13 39.7333 121.045 38.8587 120.874 37.984C120.703 37.088 120.383 36.288 119.914 35.584C119.466 34.88 118.847 34.304 118.058 33.856C117.269 33.408 116.266 33.184 115.05 33.184ZM128.889 29.6H142.169V33.504H133.273V38.72H141.369V42.624H133.273V48.096H142.329V52H128.889V29.6ZM153.701 29.824C154.597 29.6533 155.579 29.5253 156.645 29.44C157.733 29.3333 158.811 29.28 159.877 29.28C160.987 29.28 162.096 29.376 163.205 29.568C164.336 29.7387 165.349 30.1013 166.245 30.656C167.141 31.1893 167.867 31.9467 168.421 32.928C168.997 33.888 169.285 35.1467 169.285 36.704C169.285 38.112 169.04 39.3067 168.549 40.288C168.059 41.248 167.408 42.0373 166.597 42.656C165.787 43.2747 164.859 43.7227 163.813 44C162.789 44.2773 161.723 44.416 160.613 44.416C160.507 44.416 160.336 44.416 160.101 44.416C159.867 44.416 159.621 44.416 159.365 44.416C159.109 44.3947 158.853 44.3733 158.597 44.352C158.363 44.3307 158.192 44.3093 158.085 44.288V52H153.701V29.824ZM160.229 33.056C159.803 33.056 159.397 33.0773 159.013 33.12C158.629 33.1413 158.32 33.1733 158.085 33.216V40.48C158.171 40.5013 158.299 40.5227 158.469 40.544C158.64 40.5653 158.821 40.5867 159.013 40.608C159.205 40.608 159.387 40.608 159.557 40.608C159.749 40.608 159.888 40.608 159.973 40.608C160.549 40.608 161.115 40.5547 161.669 40.448C162.245 40.3413 162.757 40.1493 163.205 39.872C163.653 39.5733 164.005 39.168 164.261 38.656C164.539 38.144 164.677 37.472 164.677 36.64C164.677 35.936 164.549 35.36 164.293 34.912C164.037 34.4427 163.696 34.0693 163.269 33.792C162.864 33.5147 162.395 33.3227 161.861 33.216C161.328 33.1093 160.784 33.056 160.229 33.056ZM172.014 29.824C172.504 29.7387 173.027 29.664 173.582 29.6C174.158 29.5147 174.723 29.4507 175.278 29.408C175.854 29.3653 176.408 29.3333 176.942 29.312C177.475 29.2907 177.966 29.28 178.414 29.28C179.459 29.28 180.483 29.376 181.486 29.568C182.51 29.76 183.416 30.0907 184.206 30.56C185.016 31.0293 185.656 31.68 186.126 32.512C186.616 33.3227 186.862 34.3467 186.862 35.584C186.862 37.4187 186.435 38.912 185.582 40.064C184.728 41.216 183.587 42.016 182.158 42.464L183.726 43.456L188.846 52H183.79L178.702 43.232L176.398 42.816V52H172.014V29.824ZM178.734 33.184C178.286 33.184 177.838 33.1947 177.39 33.216C176.963 33.2373 176.632 33.28 176.398 33.344V39.84H178.254C179.47 39.84 180.44 39.5627 181.166 39.008C181.891 38.4533 182.254 37.536 182.254 36.256C182.254 35.296 181.955 34.5493 181.358 34.016C180.76 33.4613 179.886 33.184 178.734 33.184ZM189.497 40.8C189.497 37.0667 190.319 34.1973 191.961 32.192C193.604 30.1653 195.951 29.152 199.001 29.152C200.601 29.152 201.999 29.4293 203.193 29.984C204.388 30.5387 205.38 31.328 206.169 32.352C206.959 33.376 207.545 34.6027 207.929 36.032C208.313 37.4613 208.505 39.0507 208.505 40.8C208.505 44.5333 207.673 47.4133 206.009 49.44C204.367 51.4453 202.031 52.448 199.001 52.448C197.38 52.448 195.972 52.1707 194.777 51.616C193.583 51.0613 192.591 50.272 191.801 49.248C191.033 48.224 190.457 46.9973 190.073 45.568C189.689 44.1387 189.497 42.5493 189.497 40.8ZM194.105 40.8C194.105 41.9307 194.201 42.976 194.393 43.936C194.585 44.8747 194.873 45.6853 195.257 46.368C195.663 47.0507 196.175 47.584 196.793 47.968C197.412 48.352 198.148 48.544 199.001 48.544C200.559 48.544 201.764 47.936 202.617 46.72C203.471 45.504 203.897 43.5307 203.897 40.8C203.897 39.712 203.801 38.6987 203.609 37.76C203.439 36.8213 203.161 36 202.777 35.296C202.393 34.592 201.892 34.048 201.273 33.664C200.655 33.2587 199.897 33.056 199.001 33.056C197.444 33.056 196.239 33.6853 195.385 34.944C194.532 36.1813 194.105 38.1333 194.105 40.8ZM211.639 29.6C212.087 29.536 212.588 29.4827 213.143 29.44C213.719 29.3973 214.305 29.3653 214.903 29.344C215.5 29.3227 216.076 29.312 216.631 29.312C217.207 29.2907 217.719 29.28 218.167 29.28C220.151 29.28 221.847 29.5573 223.255 30.112C224.663 30.6667 225.804 31.4453 226.679 32.448C227.553 33.4507 228.193 34.6453 228.599 36.032C229.004 37.4187 229.207 38.944 229.207 40.608C229.207 42.1227 229.015 43.584 228.631 44.992C228.247 46.4 227.607 47.648 226.711 48.736C225.815 49.824 224.631 50.6987 223.159 51.36C221.708 52.0213 219.905 52.352 217.751 52.352C217.409 52.352 216.951 52.3413 216.375 52.32C215.82 52.2987 215.233 52.2667 214.615 52.224C214.017 52.2027 213.441 52.1707 212.887 52.128C212.332 52.1067 211.916 52.0747 211.639 52.032V29.6ZM218.519 33.184C218.049 33.184 217.569 33.1947 217.079 33.216C216.609 33.2373 216.257 33.2693 216.023 33.312V48.32C216.108 48.3413 216.247 48.3627 216.439 48.384C216.652 48.384 216.876 48.3947 217.111 48.416C217.345 48.416 217.569 48.4267 217.783 48.448C217.996 48.448 218.156 48.448 218.263 48.448C219.5 48.448 220.524 48.2347 221.335 47.808C222.167 47.36 222.817 46.7733 223.287 46.048C223.777 45.3227 224.119 44.4907 224.311 43.552C224.503 42.592 224.599 41.6107 224.599 40.608C224.599 39.7333 224.513 38.8587 224.343 37.984C224.172 37.088 223.852 36.288 223.383 35.584C222.935 34.88 222.316 34.304 221.527 33.856C220.737 33.408 219.735 33.184 218.519 33.184ZM244.518 29.6H248.678V44.064C248.678 45.5147 248.486 46.7627 248.102 47.808C247.718 48.8533 247.184 49.7173 246.502 50.4C245.819 51.0827 244.987 51.584 244.006 51.904C243.024 52.224 241.947 52.384 240.774 52.384C235.099 52.384 232.262 49.792 232.262 44.608V29.6H236.646V43.744C236.646 44.6187 236.72 45.3653 236.87 45.984C237.04 46.5813 237.296 47.072 237.638 47.456C237.979 47.8187 238.406 48.0853 238.918 48.256C239.43 48.4053 240.027 48.48 240.71 48.48C242.054 48.48 243.024 48.1067 243.622 47.36C244.219 46.6133 244.518 45.408 244.518 43.744V29.6ZM267.588 51.072C266.905 51.5627 266.031 51.9147 264.964 52.128C263.919 52.3413 262.841 52.448 261.732 52.448C260.388 52.448 259.108 52.2453 257.892 51.84C256.697 51.4133 255.641 50.7413 254.724 49.824C253.807 48.8853 253.071 47.68 252.516 46.208C251.983 44.7147 251.716 42.912 251.716 40.8C251.716 38.6027 252.015 36.768 252.612 35.296C253.231 33.8027 254.02 32.608 254.98 31.712C255.961 30.7947 257.049 30.144 258.244 29.76C259.439 29.3547 260.633 29.152 261.828 29.152C263.108 29.152 264.185 29.2373 265.06 29.408C265.956 29.5787 266.692 29.7813 267.268 30.016L266.404 33.728C265.913 33.4933 265.327 33.3227 264.644 33.216C263.983 33.1093 263.172 33.056 262.212 33.056C260.441 33.056 259.012 33.6853 257.924 34.944C256.857 36.2027 256.324 38.1547 256.324 40.8C256.324 41.952 256.452 43.008 256.708 43.968C256.964 44.9067 257.348 45.7173 257.86 46.4C258.393 47.0613 259.044 47.584 259.812 47.968C260.601 48.3307 261.508 48.512 262.532 48.512C263.492 48.512 264.303 48.416 264.964 48.224C265.625 48.032 266.201 47.7867 266.692 47.488L267.588 51.072ZM284.793 33.504H278.265V52H273.881V33.504H267.321V29.6H284.793V33.504ZM287.524 29.6H291.908V52H287.524V29.6ZM295.497 40.8C295.497 37.0667 296.319 34.1973 297.961 32.192C299.604 30.1653 301.951 29.152 305.001 29.152C306.601 29.152 307.999 29.4293 309.193 29.984C310.388 30.5387 311.38 31.328 312.169 32.352C312.959 33.376 313.545 34.6027 313.929 36.032C314.313 37.4613 314.505 39.0507 314.505 40.8C314.505 44.5333 313.673 47.4133 312.009 49.44C310.367 51.4453 308.031 52.448 305.001 52.448C303.38 52.448 301.972 52.1707 300.777 51.616C299.583 51.0613 298.591 50.272 297.801 49.248C297.033 48.224 296.457 46.9973 296.073 45.568C295.689 44.1387 295.497 42.5493 295.497 40.8ZM300.105 40.8C300.105 41.9307 300.201 42.976 300.393 43.936C300.585 44.8747 300.873 45.6853 301.257 46.368C301.663 47.0507 302.175 47.584 302.793 47.968C303.412 48.352 304.148 48.544 305.001 48.544C306.559 48.544 307.764 47.936 308.617 46.72C309.471 45.504 309.897 43.5307 309.897 40.8C309.897 39.712 309.801 38.6987 309.609 37.76C309.439 36.8213 309.161 36 308.777 35.296C308.393 34.592 307.892 34.048 307.273 33.664C306.655 33.2587 305.897 33.056 305.001 33.056C303.444 33.056 302.239 33.6853 301.385 34.944C300.532 36.1813 300.105 38.1333 300.105 40.8ZM323.207 40.32L321.447 36.8H321.287L321.799 40.32V52H317.639V29.44H320.839L329.319 41.376L331.015 44.8H331.175L330.663 41.376V29.6H334.823V52.16H331.623L323.207 40.32Z" fill="#E4AB16"/>
<rect x="42" y="29" width="5" height="5" fill="#E4AB16"/>
<rect x="42" y="47" width="5" height="5" fill="#E4AB16"/>
<rect x="42" y="38" width="5" height="5" fill="#E4AB16"/>
<rect x="33" y="43" width="5" height="5" fill="#E4AB16"/>
<rect x="24" y="38" width="5" height="5" fill="#E4AB16"/>
<rect x="33" y="33" width="5" height="5" fill="#E4AB16"/>
</svg>
