<?xml version="1.0"?>
<svg xmlns="http://www.w3.org/2000/svg" height="512px" viewBox="0 -12 512 511" width="512px" class=""><g><path d="m488.453125.5h-464.90625c-12.984375 0-23.546875 10.5625-23.546875 23.546875v352.6875c0 12.984375 10.5625 23.546875 23.546875 23.546875h160.8125v73.140625h-16.53125c-4.152344 0-7.515625 3.367187-7.515625 7.515625 0 4.152344 3.363281 7.515625 7.515625 7.515625h176.34375c4.152344 0 7.515625-3.363281 7.515625-7.515625 0-4.148438-3.363281-7.515625-7.515625-7.515625h-16.53125v-73.140625h160.8125c12.984375 0 23.546875-10.5625 23.546875-23.546875v-352.6875c0-12.984375-10.5625-23.546875-23.546875-23.546875zm-464.90625 15.03125h464.90625c4.695313 0 8.515625 3.820312 8.515625 8.515625v24.546875h-481.9375v-24.546875c0-4.695313 3.820312-8.515625 8.515625-8.515625zm289.0625 457.890625h-113.21875v-73.140625h113.21875zm175.84375-88.171875h-464.90625c-4.695313 0-8.515625-3.820312-8.515625-8.515625v-24.546875h404.957031c4.148438 0 7.515625-3.363281 7.515625-7.515625s-3.367187-7.515625-7.515625-7.515625h-404.957031v-273.53125h481.9375v273.53125h-40.910156c-4.152344 0-7.515625 3.363281-7.515625 7.515625s3.363281 7.515625 7.515625 7.515625h40.910156v24.546875c0 4.695313-3.820312 8.515625-8.515625 8.515625zm0 0" data-original="#000000" class="active-path" data-old_color="#ededed" fill="#ededed"/><path d="m247.984375 39.578125h16.03125c4.148437 0 7.515625-3.367187 7.515625-7.515625 0-4.152344-3.367188-7.515625-7.515625-7.515625h-16.03125c-4.148437 0-7.515625 3.363281-7.515625 7.515625 0 4.148438 3.367188 7.515625 7.515625 7.515625zm0 0" data-original="#000000" class="active-path" data-old_color="#ededed" fill="#ededed"/><path d="m272.03125 361.203125h-32.0625c-4.148438 0-7.515625 3.363281-7.515625 7.515625s3.367187 7.515625 7.515625 7.515625h32.0625c4.148438 0 7.515625-3.363281 7.515625-7.515625s-3.367187-7.515625-7.515625-7.515625zm0 0" data-original="#000000" class="active-path" data-old_color="#ededed" fill="#ededed"/><path d="m365.257812 154.75c-21.089843-19.171875-57.167968-42.03125-109.257812-42.03125s-88.167969 22.859375-109.257812 42.03125c-22.820313 20.746094-33.292969 41.410156-33.730469 42.277344-1.058594 2.117187-1.058594 4.609375 0 6.722656.4375.871094 10.910156 21.53125 33.730469 42.277344 21.089843 19.175781 57.167968 42.035156 109.257812 42.035156s88.167969-22.859375 109.257812-42.03125c22.820313-20.746094 33.292969-41.410156 33.730469-42.277344 1.058594-2.117187 1.058594-4.609375 0-6.722656-.4375-.871094-10.910156-21.535156-33.730469-42.28125zm-10.539062 80.550781c-27.75 25.035157-60.964844 37.730469-98.71875 37.730469s-70.96875-12.695312-98.71875-37.730469c-15.714844-14.183593-25.167969-28.558593-28.9375-34.910156 3.769531-6.351563 13.222656-20.726563 28.9375-34.910156 27.75-25.035157 60.964844-37.730469 98.71875-37.730469s70.96875 12.695312 98.71875 37.730469c15.722656 14.1875 25.171875 28.566406 28.9375 34.910156-3.769531 6.351563-13.21875 20.722656-28.9375 34.910156zm0 0" data-original="#000000" class="active-path" data-old_color="#ededed" fill="#ededed"/><path d="m256 128.75c-39.503906 0-71.640625 32.136719-71.640625 71.640625 0 39.5 32.136719 71.640625 71.640625 71.640625s71.640625-32.140625 71.640625-71.640625c0-39.503906-32.136719-71.640625-71.640625-71.640625zm0 128.25c-31.214844 0-56.609375-25.394531-56.609375-56.609375s25.394531-56.609375 56.609375-56.609375 56.609375 25.394531 56.609375 56.609375-25.394531 56.609375-56.609375 56.609375zm0 0" data-original="#000000" class="active-path" data-old_color="#ededed" fill="#ededed"/><path d="m291.421875 177.636719-32.0625-16.03125c-2.113281-1.058594-4.605469-1.058594-6.71875 0l-32.0625 16.03125c-3.714844 1.859375-5.21875 6.371093-3.363281 10.082031 1.394531 2.792969 4.292968 4.332031 7.222656 4.140625v32.578125c0 4.152344 3.367188 7.515625 7.515625 7.515625h48.09375c4.148437 0 7.515625-3.363281 7.515625-7.515625v-32.589844c.164062.011719.328125.027344.492188.027344 2.757812 0 5.414062-1.523438 6.730468-4.15625 1.855469-3.710938.351563-8.222656-3.363281-10.082031zm-51.953125 39.285156v-31.925781l16.53125-8.265625 16.53125 8.265625v31.925781zm0 0" data-original="#000000" class="active-path" data-old_color="#ededed" fill="#ededed"/></g> </svg>
