<?xml version="1.0"?>
<svg xmlns="http://www.w3.org/2000/svg" xmlns:xlink="http://www.w3.org/1999/xlink" version="1.1" id="Capa_1" x="0px" y="0px" viewBox="0 0 511 511" style="enable-background:new 0 0 511 511;" xml:space="preserve" width="512px" height="512px" class=""><g><g>
	<path d="M449.174,12.488C445.088,4.785,437.133,0,428.414,0H268.525c-23.748,0-45.877,11.738-59.196,31.399L60.368,251.294   c-1.687,2.49-1.723,5.746-0.093,8.272L201.37,478.262c13.226,20.5,35.686,32.738,60.081,32.738h159.764   c8.74,0,16.454-4.582,20.635-12.256s3.849-16.641-0.889-23.984L299.569,255.601L447.87,36.68   C452.76,29.461,453.26,20.191,449.174,12.488z M435.451,28.267L284.368,251.294c-1.687,2.49-1.723,5.746-0.093,8.272   l144.081,223.326c1.714,2.656,1.834,5.899,0.322,8.675c-1.513,2.776-4.303,4.433-7.464,4.433H261.451   c-19.277,0-37.026-9.671-47.477-25.87L75.569,255.601L221.748,39.812C232.272,24.275,249.76,15,268.525,15h159.889   c3.202,0,6.008,1.688,7.509,4.517C437.423,22.345,437.247,25.617,435.451,28.267z" data-original="#000000" class="active-path" data-old_color="#fbb926" fill="#fbb926"/>
	<path d="M168.879,341.205c-2.246-3.481-6.889-4.481-10.368-2.236c-3.48,2.246-4.482,6.888-2.236,10.368l14.326,22.204   c1.435,2.223,3.847,3.435,6.309,3.435c1.393,0,2.802-0.388,4.059-1.199c3.48-2.246,4.482-6.888,2.236-10.368L168.879,341.205z" data-original="#000000" class="active-path" data-old_color="#fbb926" fill="#fbb926"/>
	<path d="M198.689,387.411c-2.246-3.48-6.887-4.481-10.368-2.236c-3.48,2.246-4.482,6.888-2.236,10.368l42.175,65.371   c1.435,2.224,3.847,3.435,6.309,3.435c1.393,0,2.802-0.388,4.059-1.199c3.48-2.246,4.482-6.888,2.236-10.368L198.689,387.411z" data-original="#000000" class="active-path" data-old_color="#fbb926" fill="#fbb926"/>
	<path d="M394.578,32h-71.996c-4.142,0-7.5,3.358-7.5,7.5s3.358,7.5,7.5,7.5h71.996c4.142,0,7.5-3.358,7.5-7.5S398.72,32,394.578,32   z" data-original="#000000" class="active-path" data-old_color="#fbb926" fill="#fbb926"/>
	<path d="M290.577,32h-22.052c-4.142,0-7.5,3.358-7.5,7.5s3.358,7.5,7.5,7.5h22.052c4.142,0,7.5-3.358,7.5-7.5S294.72,32,290.577,32   z" data-original="#000000" class="active-path" data-old_color="#fbb926" fill="#fbb926"/>
</g></g> </svg>
