<?xml version="1.0"?>
<svg xmlns="http://www.w3.org/2000/svg" xmlns:xlink="http://www.w3.org/1999/xlink" version="1.1" id="Capa_1" x="0px" y="0px" viewBox="0 0 512 512" style="enable-background:new 0 0 512 512;" xml:space="preserve" width="512px" height="512px" class=""><g><g>
	<path d="M231.148,425.023c4.142,0,7.5-3.358,7.5-7.5v-8.283c0-4.142-3.358-7.5-7.5-7.5c-4.142,0-7.5,3.358-7.5,7.5v8.283   C223.648,421.665,227.006,425.023,231.148,425.023z" data-original="#000000" class="active-path" data-old_color="#ededed" fill="#ededed"/>
	<path d="M280.848,401.74c-4.142,0-7.5,3.358-7.5,7.5v8.283c0,4.142,3.358,7.5,7.5,7.5c4.142,0,7.5-3.358,7.5-7.5v-8.283   C288.348,405.098,284.99,401.74,280.848,401.74z" data-original="#000000" class="active-path" data-old_color="#ededed" fill="#ededed"/>
	<path d="M438.231,397.6h-0.783v-42.767c0-12.958-10.542-23.5-23.5-23.5h-1.134c-12.958,0-23.5,10.542-23.5,23.5V397.6h-0.783   c-4.142,0-7.5,3.358-7.5,7.5s3.358,7.5,7.5,7.5h8.273c0.003,0,0.006,0,0.01,0h33.134c0.003,0,0.007,0,0.01,0h8.273   c4.142,0,7.5-3.358,7.5-7.5S442.373,397.6,438.231,397.6z M404.314,354.833c0-4.687,3.813-8.5,8.5-8.5h1.134   c4.687,0,8.5,3.813,8.5,8.5V397.6h-18.134V354.833z" data-original="#000000" class="active-path" data-old_color="#ededed" fill="#ededed"/>
	<path d="M123.466,397.6h-0.783v-42.767c0-12.958-10.542-23.5-23.5-23.5h-1.134c-12.958,0-23.5,10.542-23.5,23.5V397.6h-0.782   c-4.142,0-7.5,3.358-7.5,7.5s3.358,7.5,7.5,7.5h8.272c0.003,0,0.006,0,0.01,0h33.134c0.003,0,0.006,0,0.01,0h8.273   c4.142,0,7.5-3.358,7.5-7.5S127.608,397.6,123.466,397.6z M89.549,354.833c0-4.687,3.813-8.5,8.5-8.5h1.134   c4.687,0,8.5,3.813,8.5,8.5V397.6H89.549V354.833z" data-original="#000000" class="active-path" data-old_color="#ededed" fill="#ededed"/>
	<path d="M212.831,98.063c4.692,4.692,10.854,7.038,17.018,7.038c3.73,0,7.454-0.874,10.857-2.592l8.118,8.117l-23.688,23.688   c-2.929,2.929-2.929,7.678,0,10.606c1.464,1.464,3.384,2.197,5.303,2.197s3.839-0.732,5.303-2.197l23.688-23.688l23.689,23.689   c1.464,1.464,3.384,2.197,5.303,2.197c1.919,0,3.839-0.732,5.303-2.197c2.929-2.929,2.929-7.678,0-10.607l-23.689-23.689   l8.118-8.118c3.404,1.718,7.129,2.592,10.859,2.592c6.163,0,12.326-2.346,17.018-7.038l11.714-11.714   c9.383-9.383,9.383-24.651,0-34.036c-9.384-9.384-24.652-9.383-34.036,0l-11.714,11.713c-7.53,7.531-9.002,18.846-4.446,27.874   l-8.118,8.118l-8.117-8.118c4.557-9.028,3.085-20.344-4.446-27.875l-23.428-23.428c-2.929-2.929-7.678-2.929-10.607,0   c-2.929,2.929-2.929,7.678,0,10.607l23.428,23.428c3.535,3.535,3.535,9.288,0,12.823c-3.535,3.535-9.287,3.535-12.822,0   l-23.428-23.428c-2.929-2.929-7.678-2.929-10.607,0c-2.929,2.929-2.929,7.678,0,10.607L212.831,98.063z M282.6,74.634   l11.714-11.714c1.768-1.768,4.089-2.651,6.412-2.651c2.321,0,4.643,0.884,6.411,2.651c3.535,3.535,3.536,9.288,0.001,12.823   l-11.714,11.714c-3.536,3.535-9.288,3.534-12.822,0C279.066,83.921,279.066,78.169,282.6,74.634z" data-original="#000000" class="active-path" data-old_color="#ededed" fill="#ededed"/>
	<path d="M181.449,296.634h8.283h33.134h8.282c4.142,0,7.5-3.358,7.5-7.5c0-4.142-3.358-7.5-7.5-7.5h-0.782v-42.767   c0-12.958-10.542-23.5-23.5-23.5h-1.134c-12.958,0-23.5,10.542-23.5,23.5v42.767h-0.783c-4.142,0-7.5,3.358-7.5,7.5   C173.949,293.276,177.307,296.634,181.449,296.634z M197.232,238.867c0-4.687,3.813-8.5,8.5-8.5h1.134c4.687,0,8.5,3.813,8.5,8.5   v42.767h-18.134V238.867z" data-original="#000000" class="active-path" data-old_color="#ededed" fill="#ededed"/>
	<path d="M280.849,296.634h8.283h33.134h8.282c4.142,0,7.5-3.358,7.5-7.5c0-4.142-3.358-7.5-7.5-7.5h-0.782v-42.767   c0-12.958-10.542-23.5-23.5-23.5h-1.134c-12.958,0-23.5,10.542-23.5,23.5v42.767h-0.783c-4.142,0-7.5,3.358-7.5,7.5   C273.349,293.276,276.707,296.634,280.849,296.634z M296.632,238.867c0-4.687,3.813-8.5,8.5-8.5h1.134c4.687,0,8.5,3.813,8.5,8.5   v42.767h-18.134V238.867z" data-original="#000000" class="active-path" data-old_color="#ededed" fill="#ededed"/>
	<path d="M487.932,497h-9.067v-25.633c0-4.142-3.358-7.5-7.5-7.5h-9.065V230.368h9.065c4.142,0,7.5-3.358,7.5-7.5v-33.132   c0-4.142-3.358-7.5-7.5-7.5h-91.898v-51.27h9.063c4.142,0,7.5-3.357,7.5-7.499l0.002-33.132c0-1.989-0.79-3.897-2.196-5.304   c-1.407-1.407-3.314-2.197-5.304-2.197h-33.916v-9.067C354.616,33.092,321.524,0,280.849,0h-49.7   c-40.675,0-73.767,33.092-73.767,73.767v9.067h-33.915c-4.142,0-7.5,3.358-7.5,7.5v33.132c0,4.142,3.358,7.5,7.5,7.5h9.066v51.27   H40.634c-4.142,0-7.5,3.358-7.5,7.5v33.132c0,4.142,3.358,7.5,7.5,7.5h9.065v233.499h-9.065c-4.142,0-7.5,3.358-7.5,7.5V497h-9.066   c-4.142,0-7.5,3.358-7.5,7.5s3.358,7.5,7.5,7.5h59.547c4.142,0,7.5-3.358,7.5-7.5s-3.358-7.5-7.5-7.5H48.134v-18.133h9.036   c0.01,0,0.019,0.001,0.029,0.001h82.834c0.01,0,0.019-0.001,0.029-0.001h57.925c0.01,0,0.019,0.001,0.029,0.001h115.965   c0.01,0,0.019-0.001,0.029-0.001h57.925c0.01,0,0.019,0.001,0.029,0.001h82.833c0.01,0,0.019-0.001,0.029-0.001h9.036V497H113.616   c-4.142,0-7.5,3.358-7.5,7.5s3.358,7.5,7.5,7.5h374.316c4.142,0,7.5-3.358,7.5-7.5S492.074,497,487.932,497z M164.883,197.235   h182.233c4.142,0,7.5-3.358,7.5-7.5v-25.634h9.851v25.615c0,0.007-0.001,0.013-0.001,0.019v33.132l0,0.001c0,0,0,0.001,0,0.001   v240.993h-42.983V355.4c0-4.142-3.358-7.5-7.5-7.5H198.017c-4.142,0-7.5,3.358-7.5,7.5v108.462h-42.983V222.87v-0.001v-33.132   v-25.635h9.85v25.634C157.383,193.877,160.741,197.235,164.883,197.235z M263.5,362.9h42.982v100.962H263.5V362.9z    M248.499,463.863h-42.983V362.9h42.983V463.863z M379.466,463.867V230.37h67.832v233.497H379.466z M463.864,197.236v18.132   h-84.398v-18.132H463.864z M364.466,149.102h-9.851v-18.135h9.851V149.102z M381.031,97.835l-0.001,18.132h-26.415V97.835H381.031z    M231.149,15h49.7c32.404,0,58.767,26.363,58.767,58.767v108.468H172.383v-25.624c0-0.003,0.001-0.006,0.001-0.01   c0-0.003-0.001-0.006-0.001-0.01V90.344c0-0.003,0.001-0.006,0.001-0.01c0-0.003-0.001-0.006-0.001-0.01V73.767   C172.383,41.363,198.746,15,231.149,15z M130.967,97.835h26.415v18.132h-26.415V97.835z M157.383,130.967v18.135h-9.85v-18.135   H157.383z M48.134,197.236h84.399v18.132H48.134V197.236z M64.699,230.37h67.834v233.497H64.699V230.37z" data-original="#000000" class="active-path" data-old_color="#ededed" fill="#ededed"/>
</g></g> </svg>
